# xmcd
# 
# Track frame offsets:
#     150
#     15093
#     29729
#     47805
#     63530
#     82252
#     95410
#     109742
#     124261
#     138145
#     159316
#     179797
#     197252
#     217728
#     233840
#     245210
#     269997
#     287069
# 
# Disc length: 4030
# 
# Revision: 0
# Processed by: cddbd v1.5.2PL0 Copyright (c) Steve Scherf et al.
# Submitted via: fre:ac v1.0.31
# 
DISCID=0a0fbc12
DTITLE=Secret Garden - Listen Secret Garden (HQ Boutique Music)-CD2
DYEAR=0
DGENRE=Folk
TTITLE0=Moving
TTITLE1=Heartstrings
TTITLE2=Steps
TTITLE3=Cantoluna
TTITLE4=Song For A Stormy NIght
TTITLE5=Atlantia
TTITLE6=Elan
TTITLE7=Serenade To Spring
TTITLE8=Sigma
TTITLE9=First Day of Spring
TTITLE10=Sometimes When It Rains
TTITLE11=Awakening
TTITLE12=Half A World Away
TTITLE13=Theme From The Mermaid Chair
TTITLE14=The Rap
TTITLE15=Elegie
TTITLE16=Duo
TTITLE17=The Reel
EXTD=
EXTT0=
EXTT1=
EXTT2=
EXTT3=
EXTT4=
EXTT5=
EXTT6=
EXTT7=
EXTT8=
EXTT9=
EXTT10=
EXTT11=
EXTT12=
EXTT13=
EXTT14=
EXTT15=
EXTT16=
EXTT17=
PLAYORDER=
